<svg width="33" height="32" viewBox="0 0 33 32" fill="none" xmlns="http://www.w3.org/2000/svg">
<path d="M23.1667 26.6668C24.6394 26.6668 25.8333 25.4729 25.8333 24.0002C25.8333 22.5274 24.6394 21.3335 23.1667 21.3335C21.6939 21.3335 20.5 22.5274 20.5 24.0002C20.5 25.4729 21.6939 26.6668 23.1667 26.6668Z" stroke="#F4F8FF" stroke-width="1.5"/>
<path d="M9.83329 26.6668C11.3061 26.6668 12.5 25.4729 12.5 24.0002C12.5 22.5274 11.3061 21.3335 9.83329 21.3335C8.36053 21.3335 7.16663 22.5274 7.16663 24.0002C7.16663 25.4729 8.36053 26.6668 9.83329 26.6668Z" stroke="#F4F8FF" stroke-width="1.5"/>
<path d="M7.16663 23.9634C5.70433 23.8906 4.79209 23.673 4.14293 23.0239C3.49377 22.3747 3.27625 21.4624 3.20336 20.0002M12.5 24.0002H20.5M25.8333 23.9634C27.2956 23.8906 28.2078 23.673 28.857 23.0239C29.8333 22.0475 29.8333 20.4762 29.8333 17.3335V14.6668H23.5666C22.574 14.6668 22.0776 14.6668 21.676 14.5363C20.8641 14.2726 20.2276 13.636 19.9638 12.8242C19.8333 12.4225 19.8333 11.9262 19.8333 10.9335C19.8333 9.44447 19.8333 8.69996 19.6376 8.09743C19.2418 6.87968 18.2872 5.92494 17.0694 5.52927C16.4669 5.3335 15.7224 5.3335 14.2333 5.3335H3.16663" stroke="#F4F8FF" stroke-width="1.5" stroke-linecap="round" stroke-linejoin="round"/>
<path d="M3.16663 10.6665H11.1666" stroke="#F4F8FF" stroke-width="1.5" stroke-linecap="round" stroke-linejoin="round"/>
<path d="M3.16663 14.6665H8.49996" stroke="#F4F8FF" stroke-width="1.5" stroke-linecap="round" stroke-linejoin="round"/>
<path d="M19.8334 8H22.2616C24.2022 8 25.1723 8 25.9619 8.47161C26.7515 8.94323 27.2115 9.79748 28.1315 11.506L29.8334 14.6667" stroke="#F4F8FF" stroke-width="1.5" stroke-linecap="round" stroke-linejoin="round"/>
</svg>
